<?xml version="1.0" encoding="UTF-8"?>
<svg version="1.1" xmlns="http://www.w3.org/2000/svg" width="500" height="500">
<path d="M0 0 C165 0 330 0 500 0 C500 165 500 330 500 500 C335 500 170 500 0 500 C0 335 0 170 0 0 Z " fill="#FD0000" transform="translate(0,0)"/>
<path d="M0 0 C41.05569007 0 41.05569007 0 47.12109375 4.61328125 C47.55550781 5.17402344 47.98992187 5.73476562 48.4375 6.3125 C49.11619141 7.14201172 49.11619141 7.14201172 49.80859375 7.98828125 C53.30613972 13.89397362 53.36560452 19.70420914 53.375 26.375 C53.39949219 27.2825 53.42398438 28.19 53.44921875 29.125 C53.47545463 35.19423433 52.60008438 39.99409434 49 45 C46.25 47 46.25 47 44 48 C45.36125 48.9590625 45.36125 48.9590625 46.75 49.9375 C51.34917132 53.82884649 53.58548405 58.84076862 54.36572266 64.78735352 C54.50054753 67.80677422 54.50328084 70.79087159 54.4375 73.8125 C54.42428711 74.87259277 54.41107422 75.93268555 54.39746094 77.02490234 C54.17293702 86.75576904 53.58096349 96.25769001 47 104 C33.94880614 116.04725587 18.63046788 110 0 110 C0 73.7 0 37.4 0 0 Z " fill="#FDFBFB" transform="translate(48,196)"/>
<path d="M0 0 C12.21 0 24.42 0 37 0 C38.30557254 8.48622153 39.463968 16.81566379 40.21875 25.34375 C40.37386047 27.03933044 40.37386047 27.03933044 40.53210449 28.76916504 C40.85850583 32.34577948 41.17943456 35.92285827 41.5 39.5 C41.71446383 41.86461782 41.92930508 44.22920144 42.14453125 46.59375 C42.46191769 50.0813815 42.77901444 53.56903616 43.09451294 57.05683899 C43.89315051 65.87762219 44.72592267 74.69482296 45.57128906 83.51123047 C46.10771579 89.10998281 46.62059536 94.71078004 47.125 100.3125 C47.41375 103.509375 47.7025 106.70625 48 110 C41.07 110 34.14 110 27 110 C26.21250382 103.70003057 25.91300961 98.26330814 26 92 C21.38 92 16.76 92 12 92 C12.020625 93.299375 12.04125 94.59875 12.0625 95.9375 C12.13916763 100.76756047 11.54803961 105.06764348 11 110 C4.07 110 -2.86 110 -10 110 C-10.31319564 99.18114695 -9.13066464 88.54367737 -8.06640625 77.79296875 C-7.86661754 75.73802022 -7.66723779 73.68303188 -7.46824646 71.62800598 C-7.05197153 67.34030387 -6.63223386 63.05296057 -6.2097168 58.76586914 C-5.66890106 53.27771185 -5.1345493 47.78895006 -4.60249424 42.29993725 C-4.19161218 38.06440616 -3.77846418 33.82909872 -3.3645153 29.59386635 C-3.16673484 27.56974825 -2.9693899 25.54558755 -2.77249336 23.52138329 C-2.49702249 20.69527542 -2.21877888 17.86945447 -1.93969727 15.04370117 C-1.85913589 14.21293564 -1.77857452 13.3821701 -1.6955719 12.52622986 C-1.61846985 11.7513623 -1.5413678 10.97649475 -1.46192932 10.17814636 C-1.39648202 9.51215014 -1.33103472 8.84615393 -1.26360416 8.15997601 C-0.93017288 5.42783569 -0.4524936 2.71496163 0 0 Z " fill="#FEFDFD" transform="translate(119,196)"/>
<path d="M0 0 C7.26 0 14.52 0 22 0 C22.495 18.315 22.495 18.315 23 37 C25.59059255 25.57217207 25.59059255 25.57217207 28.17553711 14.14306641 C28.50093429 12.71251845 28.82652333 11.28201412 29.15234375 9.8515625 C29.31996216 9.10608154 29.48758057 8.36060059 29.66027832 7.5925293 C30.8859282 2.2281436 30.8859282 2.2281436 32 0 C39.26 0 46.52 0 54 0 C52.91623858 6.65143686 51.51565811 13.14700189 49.8359375 19.66796875 C49.63808655 20.4381131 49.4402356 21.20825745 49.23638916 22.0017395 C48.40932885 25.20953962 47.57785929 28.41609271 46.73535156 31.61987305 C46.11445485 33.98793868 45.50568685 36.35887235 44.8984375 38.73046875 C44.61255264 39.79795601 44.61255264 39.79795601 44.32089233 40.88700867 C42.22235663 49.15688887 42.95856322 56.04102926 45.08203125 64.1796875 C45.29687668 65.03249298 45.51172211 65.88529846 45.733078 66.76394653 C46.41739995 69.46996076 47.11497511 72.17236287 47.8125 74.875 C48.26969909 76.68078245 48.7260864 78.48677064 49.18164062 80.29296875 C52.0653803 91.74449709 52.0653803 91.74449709 55.52612305 103.03173828 C56 105 56 105 56 110 C48.74 110 41.48 110 34 110 C32.19281493 104.57844478 30.60904579 99.79739187 29.46484375 94.3125 C29.21283203 93.11882812 28.96082031 91.92515625 28.70117188 90.6953125 C28.44916016 89.47585938 28.19714844 88.25640625 27.9375 87 C27.42602646 84.56244853 26.91431299 82.1249474 26.40234375 79.6875 C26.18054443 78.61886719 25.95874512 77.55023438 25.73022461 76.44921875 C24.85031825 72.2929777 23.92159899 68.14719546 23 64 C22.67 79.18 22.34 94.36 22 110 C14.74 110 7.48 110 0 110 C0 73.7 0 37.4 0 0 Z " fill="#FDFCFC" transform="translate(236,196)"/>
<path d="M0 0 C6.98620095 4.50109136 10.3496065 10.43346616 12.15234375 18.38671875 C12.15234375 22.01671875 12.15234375 25.64671875 12.15234375 29.38671875 C4.89234375 29.38671875 -2.36765625 29.38671875 -9.84765625 29.38671875 C-10.17765625 25.75671875 -10.50765625 22.12671875 -10.84765625 18.38671875 C-13.180604 18.34430152 -15.51468192 18.34578938 -17.84765625 18.38671875 C-19.30445 19.61540777 -19.30445 19.61540777 -18.97265625 23.32421875 C-17.88682933 31.80975506 -10.31695624 37.10529519 -4.27832031 42.49707031 C5.00738745 50.79183625 12.46865944 59.26771818 13.4296875 72.0859375 C13.80019929 82.5867221 13.26735686 94.05198911 6.15234375 102.38671875 C-0.82571383 109.06138252 -7.01130072 109.80613715 -16.375 109.62890625 C-23.95862365 109.10001461 -29.61513207 106.82560448 -35.1171875 101.48828125 C-43.0589771 91.84339907 -41.14574104 79.08654685 -40.84765625 67.38671875 C-33.58765625 67.38671875 -26.32765625 67.38671875 -18.84765625 67.38671875 C-18.41015625 76.76171875 -18.41015625 76.76171875 -18.27954102 79.71240234 C-18.22237915 80.86216553 -18.22237915 80.86216553 -18.1640625 82.03515625 C-18.12740479 82.82067871 -18.09074707 83.60620117 -18.05297852 84.41552734 C-17.95676525 86.46195371 -17.95676525 86.46195371 -16.84765625 88.38671875 C-14.53765625 88.38671875 -12.22765625 88.38671875 -9.84765625 88.38671875 C-9.68252374 86.26446022 -9.56787458 84.13826136 -9.47265625 82.01171875 C-9.40304688 80.82835937 -9.3334375 79.645 -9.26171875 78.42578125 C-9.98875833 67.43017309 -20.49637333 59.44870659 -27.94726562 52.53125 C-34.97248545 45.80083354 -40.35630629 38.4451499 -41.05078125 28.46875 C-41.18745468 18.93577832 -40.16624591 10.90071727 -33.84765625 3.38671875 C-24.08598521 -3.90489383 -11.18025304 -5.30178389 0 0 Z " fill="#FDFBFB" transform="translate(213.84765625,197.61328125)"/>
<path d="M0 0 C14.52 0 29.04 0 44 0 C44 6.93 44 13.86 44 21 C37.07 21 30.14 21 23 21 C23 27.93 23 34.86 23 42 C29.6 42 36.2 42 43 42 C43 48.93 43 55.86 43 63 C36.4 63 29.8 63 23 63 C23 71.58 23 80.16 23 89 C30.59 89 38.18 89 46 89 C46 95.93 46 102.86 46 110 C30.82 110 15.64 110 0 110 C0 73.7 0 37.4 0 0 Z " fill="#FCFBFB" transform="translate(352,196)"/>
<path d="M0 0 C14.52 0 29.04 0 44 0 C44 6.93 44 13.86 44 21 C36.74 21 29.48 21 22 21 C22 27.93 22 34.86 22 42 C28.93 42 35.86 42 43 42 C43 48.93 43 55.86 43 63 C36.07 63 29.14 63 22 63 C22 71.58 22 80.16 22 89 C29.59 89 37.18 89 45 89 C45 95.93 45 102.86 45 110 C30.15 110 15.3 110 0 110 C0 73.7 0 37.4 0 0 Z " fill="#FEFEFE" transform="translate(298,196)"/>
<path d="M0 0 C15.84 0 31.68 0 48 0 C48 6.93 48 13.86 48 21 C43.71 21 39.42 21 35 21 C35 50.37 35 79.74 35 110 C27.74 110 20.48 110 13 110 C13 80.63 13 51.26 13 21 C8.71 21 4.42 21 0 21 C0 14.07 0 7.14 0 0 Z " fill="#FCFCFB" transform="translate(403,196)"/>
<path d="M0 0 C2.64 0 5.28 0 8 0 C8 33.33 8 66.66 8 101 C20.54 101 33.08 101 46 101 C46 104.3 46 107.6 46 111 C30.82 111 15.64 111 0 111 C0 74.37 0 37.74 0 0 Z " fill="#4A0000" transform="translate(344,205)"/>
<path d="M0 0 C2.64 0 5.28 0 8 0 C8 33.33 8 66.66 8 101 C29.1335312 101.18503411 29.1335312 101.18503411 50 99 C47.89645435 102.98566544 45.79208167 105.53073752 42 108 C38.6875 108.75 38.6875 108.75 36 109 C36 109.66 36 110.32 36 111 C24.12 111 12.24 111 0 111 C0 74.37 0 37.74 0 0 Z " fill="#490000" transform="translate(40,205)"/>
<path d="M0 0 C0.33 0 0.66 0 1 0 C1 33.33 1 66.66 1 101 C0.67 101 0.34 101 0 101 C0 94.07 0 87.14 0 80 C-7.59 80 -15.18 80 -23 80 C-23 71.42 -23 62.84 -23 54 C-16.07 54 -9.14 54 -2 54 C-2 47.07 -2 40.14 -2 33 C-8.93 33 -15.86 33 -23 33 C-23 26.07 -23 19.14 -23 12 C-15.74 11.67 -8.48 11.34 -1 11 C-0.67 7.37 -0.34 3.74 0 0 Z " fill="#F70404" transform="translate(343,205)"/>
<path d="M0 0 C0 33.33 0 66.66 0 101 C12.21 101 24.42 101 37 101 C37 103.97 37 106.94 37 110 C22.15 110 7.3 110 -8 110 C-8 107.03 -8 104.06 -8 101 C-7.34 101 -6.68 101 -6 101 C-6.14174086 100.45907998 -6.28348171 99.91815996 -6.42951775 99.36084843 C-7.81589585 93.69140158 -8.27819096 88.44646387 -8.22705078 82.62475586 C-8.22734283 81.7358667 -8.22763489 80.84697754 -8.22793579 79.93115234 C-8.22655484 77.02561294 -8.21105239 74.12033773 -8.1953125 71.21484375 C-8.19157797 69.18746582 -8.18873308 67.16008607 -8.18673706 65.13270569 C-8.17913523 59.82104426 -8.15951664 54.50949383 -8.1373291 49.19787598 C-8.11679604 43.7680003 -8.10771944 38.33810652 -8.09765625 32.90820312 C-8.07626728 22.2720869 -8.04217335 11.63605271 -8 1 C-1.125 0 -1.125 0 0 0 Z " fill="#420303" transform="translate(298,205)"/>
<path d="M0 0 C1.98 0 3.96 0 6 0 C6 3.96 6 7.92 6 12 C10.29 12 14.58 12 19 12 C19 41.37 19 70.74 19 101 C23.62 101 28.24 101 33 101 C33 103.97 33 106.94 33 110 C25.74 110 18.48 110 11 110 C11 80.63 11 51.26 11 21 C6.71 21 2.42 21 -2 21 C-2 18.03 -2 15.06 -2 12 C-1.34 12 -0.68 12 0 12 C0 8.04 0 4.08 0 0 Z " fill="#450000" transform="translate(397,205)"/>
<path d="M0 0 C2.64 0 5.28 0 8 0 C8 33.33 8 66.66 8 101 C12.29 101 16.58 101 21 101 C21 103.97 21 106.94 21 110 C14.07 110 7.14 110 0 110 C0 73.7 0 37.4 0 0 Z " fill="#430303" transform="translate(228,205)"/>
<path d="M0 0 C2.31 0 4.62 0 7 0 C6.42320363 12.97811864 5.44760009 25.86804641 4.15234375 38.79296875 C3.9740365 40.60423665 3.79611147 42.41554221 3.61854553 44.22688293 C3.15709079 48.9238721 2.69055472 53.62034211 2.22283936 58.31671143 C1.74370527 63.13726157 1.26954306 67.95830068 0.79492188 72.77929688 C-0.13194226 82.18667403 -1.06419265 91.59350856 -2 101 C2.29 101 6.58 101 11 101 C11 103.97 11 106.94 11 110 C4.07 110 -2.86 110 -10 110 C-10.23394556 100.27826212 -9.31079307 90.77682457 -8.3125 81.125 C-7.94542099 77.4976457 -7.58220425 73.86990655 -7.21875 70.2421875 C-7.07376823 68.80286865 -7.07376823 68.80286865 -6.92585754 67.33447266 C-6.1358116 59.45781438 -5.38972554 51.57742304 -4.65625 43.6953125 C-4.4882917 41.89352036 -4.4882917 41.89352036 -4.31694031 40.05532837 C-3.87103502 35.26721103 -3.42574373 30.47904268 -2.98452759 25.69049072 C-2.67557663 22.34031751 -2.36344507 18.99045342 -2.05078125 15.640625 C-1.95925781 14.63718048 -1.86773437 13.63373596 -1.7734375 12.59988403 C-1.68618408 11.67005707 -1.59893066 10.7402301 -1.5090332 9.78222656 C-1.43449417 8.97545471 -1.35995514 8.16868286 -1.28315735 7.33746338 C-0.98270549 4.85723381 -0.5196168 2.44290856 0 0 Z " fill="#460404" transform="translate(111,205)"/>
<path d="M0 0 C-0.165 0.886875 -0.33 1.77375 -0.5 2.6875 C-1.98086855 13.62824529 -1.98725659 24.26075457 4.8125 33.44921875 C8.12159531 37.22669704 11.69571718 40.70827182 15.30078125 44.19921875 C30.17418263 58.64670192 30.17418263 58.64670192 30.375 68.875 C30.26207014 71.92410626 29.97117166 74.08648502 29 77 C25.535 77.495 25.535 77.495 22 78 C19.89790143 74.84685215 19.7565239 74.13896919 19.8046875 70.55078125 C19.81113281 69.70322266 19.81757813 68.85566406 19.82421875 67.98242188 C19.84097656 67.10134766 19.85773438 66.22027344 19.875 65.3125 C19.88402344 64.41982422 19.89304688 63.52714844 19.90234375 62.60742188 C19.92590252 60.40467686 19.95879671 58.20247412 20 56 C19.2265625 56.0928125 18.453125 56.185625 17.65625 56.28125 C9.39292745 56.85395552 9.39292745 56.85395552 5.66796875 54.5703125 C3.55801889 52.49781737 1.77753634 50.36366362 0 48 C-0.639375 47.19433594 -1.27875 46.38867188 -1.9375 45.55859375 C-9.44435393 35.56509445 -10.97671257 26.86014599 -9.75390625 14.515625 C-8.94625802 9.68638818 -5.82762482 0 0 0 Z " fill="#460404" transform="translate(175,209)"/>
<path d="M0 0 C2.64 0 5.28 0 8 0 C8.14695313 1.59328125 8.14695313 1.59328125 8.296875 3.21875 C9.2392031 12.48753302 10.02503093 19.84014865 16.6875 26.8125 C25.4001444 32.56613309 35.21411162 33.45055564 45.453125 31.54296875 C47.51449108 30.9912077 47.51449108 30.9912077 50 30 C48.66320896 33.02743854 47.25629459 34.96868348 44.75 37.125 C44.18796875 37.62257813 43.6259375 38.12015625 43.046875 38.6328125 C35.51699916 43.66230972 25.60659266 42.80617672 17.01171875 41.5703125 C10.85449496 40.05670058 7.3425915 37.36806913 4 32 C0.14340016 24.41978652 -0.14390886 17.44122837 -0.0625 9.125 C-0.05798828 8.24585938 -0.05347656 7.36671875 -0.04882812 6.4609375 C-0.03712337 4.30726197 -0.01919069 2.15362183 0 0 Z " fill="#450202" transform="translate(165,274)"/>
<path d="M0 0 C3.5625 0.25 3.5625 0.25 7 1 C8 3 8 3 8 12 C15.26 12 22.52 12 30 12 C30.33 10.68 30.66 9.36 31 8 C31 22.19 31 36.38 31 51 C29.97144367 48.94288734 28.9480318 46.88103665 28.02734375 44.7734375 C24.08110674 36.08888723 18.1479426 29.59760254 10.9375 23.4375 C-1.17091449 13.05538557 -1.17091449 13.05538557 -2.125 6.0625 C-2.2578125 3.84765625 -2.2578125 3.84765625 -2 2 C-1.34 1.34 -0.68 0.68 0 0 Z " fill="#F70909" transform="translate(196,215)"/>
<path d="M0 0 C0.66 0 1.32 0 2 0 C2 27.72 2 55.44 2 84 C0.02493722 80.04987444 -1.09605094 76.26218612 -2.1640625 72.015625 C-2.36099701 71.24120056 -2.55793152 70.46677612 -2.76083374 69.66888428 C-3.17506778 68.03216067 -3.58676531 66.39479328 -3.99609375 64.75683594 C-4.61996724 62.2700607 -5.25877597 59.78744159 -5.8984375 57.3046875 C-6.30040365 55.70856587 -6.70147411 54.11221835 -7.1015625 52.515625 C-7.2921524 51.78200745 -7.48274231 51.04838989 -7.67910767 50.2925415 C-9.21216955 44.05169726 -9.83891975 37.95035887 -8.046875 31.66015625 C-7.84151123 30.91483643 -7.63614746 30.1695166 -7.42456055 29.40161133 C-7.20195557 28.62970459 -6.97935059 27.85779785 -6.75 27.0625 C-6.291004 25.40158338 -5.83401769 23.74011024 -5.37890625 22.078125 C-5.1483252 21.24087891 -4.91774414 20.40363281 -4.68017578 19.54101562 C-3.59457109 15.48538977 -2.63501191 11.40224411 -1.6875 7.3125 C-1.51637695 6.57588135 -1.34525391 5.8392627 -1.16894531 5.08032227 C-0.77712346 3.38738307 -0.3882015 1.69377303 0 0 Z " fill="#FD0808" transform="translate(287,207)"/>
<path d="M0 0 C2.37280372 3.55920558 3.02392001 6.95652472 3.875 11.0703125 C4.04499512 11.86597626 4.21499023 12.66164001 4.39013672 13.48141479 C4.93284295 16.02802889 5.46659915 18.5764223 6 21.125 C6.35877247 22.81783614 6.71814108 24.51054606 7.078125 26.203125 C7.58917472 28.60700032 8.09939582 31.01101519 8.60498047 33.41604614 C9.69893796 38.6194469 10.83906583 43.81111228 12 49 C15.96 49 19.92 49 24 49 C24.66 51.97 25.32 54.94 26 58 C18.41 58 10.82 58 3 58 C-0.08389019 45.36495382 -0.35899131 33.52573307 -0.1875 20.5625 C-0.17241361 18.55925494 -0.15873226 16.5559988 -0.14648438 14.55273438 C-0.11382047 9.70154302 -0.06226059 4.85089806 0 0 Z " fill="#430303" transform="translate(258,257)"/>
<path d="M0 0 C4.62 0 9.24 0 14 0 C14.33 5.94 14.66 11.88 15 18 C18.96 18 22.92 18 27 18 C27 20.97 27 23.94 27 27 C20.4 27 13.8 27 7 27 C6.15813297 22.79066487 5.89464473 19.43017133 5.9375 15.1875 C5.94652344 14.02605469 5.95554688 12.86460937 5.96484375 11.66796875 C5.97644531 10.78753906 5.98804688 9.90710938 6 9 C4.02 9 2.04 9 0 9 C0 6.03 0 3.06 0 0 Z " fill="#430303" transform="translate(131,288)"/>
<path d="M0 0 C6 0 6 0 8.3125 1.875 C11.8948032 6.38604848 11.22018439 10.7481625 11.25 16.3125 C11.270625 17.26318359 11.29125 18.21386719 11.3125 19.19335938 C11.3619702 28.04234091 11.3619702 28.04234091 8 32 C6 33 6 33 0 33 C0 22.11 0 11.22 0 0 Z " fill="#490C0C" transform="translate(70,254)"/>
<path d="M0 0 C0.33 0 0.66 0 1 0 C1.71031116 3.3132479 2.20156515 6.55015622 2.48071289 9.92626953 C2.56072037 10.8772049 2.64072784 11.82814026 2.72315979 12.80789185 C2.80549362 13.82261566 2.88782745 14.83733948 2.97265625 15.8828125 C3.06002548 16.9340329 3.14739471 17.9852533 3.2374115 19.06832886 C3.42111491 21.28551143 3.60342105 23.50281016 3.78442383 25.72021484 C4.06207024 29.11973796 4.34414548 32.5188715 4.62695312 35.91796875 C4.80494721 38.07289523 4.9826902 40.22784247 5.16015625 42.3828125 C5.24451431 43.40158478 5.32887238 44.42035706 5.41578674 45.47000122 C5.49264206 46.41463226 5.56949738 47.35926331 5.64868164 48.33251953 C5.71672501 49.16349152 5.78476837 49.9944635 5.85487366 50.85061646 C5.97055172 52.56385834 6 54.28285727 6 56 C2.7 56 -0.6 56 -4 56 C-4.20364131 45.54346132 -3.5174399 35.2036068 -2.77319336 24.77807617 C-2.56029808 21.78150728 -2.35694415 18.78438691 -2.15429688 15.78710938 C-2.02139939 13.88537702 -1.88795636 11.9836827 -1.75390625 10.08203125 C-1.6934462 9.18426468 -1.63298615 8.28649811 -1.57069397 7.36152649 C-1.11488228 1.11488228 -1.11488228 1.11488228 0 0 Z " fill="#4F1111" transform="translate(137,215)"/>
<path d="M0 0 C3.5625 0.25 3.5625 0.25 7 1 C8.82089479 4.64178957 8.05121113 9.00553148 8 13 C12.62 13 17.24 13 22 13 C22 15.97 22 18.94 22 22 C10.01267928 22.56682602 10.01267928 22.56682602 6 19 C0.98236358 14.3932907 -1.7300702 10.77901724 -2.22265625 3.8828125 C-2 2 -2 2 0 0 Z " fill="#490707" transform="translate(196,215)"/>
<path d="M0 0 C6 0 6 0 9 2 C9.37231445 3.92358398 9.37231445 3.92358398 9.36328125 6.24609375 C9.36263672 7.08333984 9.36199219 7.92058594 9.36132812 8.78320312 C9.34521484 9.65912109 9.32910156 10.53503906 9.3125 11.4375 C9.31572266 12.30955078 9.31894531 13.18160156 9.32226562 14.08007812 C9.26714553 20.5992817 9.26714553 20.5992817 7 24 C4.69 24 2.38 24 0 24 C0 16.08 0 8.16 0 0 Z " fill="#4E0405" transform="translate(70,213)"/>
<path d="M0 0 C1.98 0 3.96 0 6 0 C3.71286417 10.34435547 1.40618638 20.68256448 -1 31 C-1.33 31 -1.66 31 -2 31 C-2.05847045 27.14589793 -2.09375405 23.29191135 -2.125 19.4375 C-2.14175781 18.35146484 -2.15851563 17.26542969 -2.17578125 16.14648438 C-2.21098659 10.35520558 -1.98923674 5.45865358 0 0 Z " fill="#4C0A0A" transform="translate(260,205)"/>
<path d="M0 0 C4.29 0 8.58 0 13 0 C13 2.97 13 5.94 13 9 C8.71 9 4.42 9 0 9 C0 6.03 0 3.06 0 0 Z " fill="#410000" transform="translate(375,217)"/>
<path d="M0 0 C4.29 0 8.58 0 13 0 C13 2.97 13 5.94 13 9 C8.71 9 4.42 9 0 9 C0 6.03 0 3.06 0 0 Z " fill="#430000" transform="translate(321,217)"/>
<path d="M0 0 C3.96 0 7.92 0 12 0 C12 2.97 12 5.94 12 9 C8.04 9 4.08 9 0 9 C0 6.03 0 3.06 0 0 Z " fill="#410000" transform="translate(375,259)"/>
<path d="M0 0 C3.96 0 7.92 0 12 0 C12 2.97 12 5.94 12 9 C8.04 9 4.08 9 0 9 C0 6.03 0 3.06 0 0 Z " fill="#420000" transform="translate(321,259)"/>
<path d="M0 0 C3.375 4.5 3.375 4.5 3.29296875 8.328125 C3.28330078 9.12734375 3.27363281 9.9265625 3.26367188 10.75 C3.23853516 11.575 3.21339844 12.4 3.1875 13.25 C3.17396484 14.09046875 3.16042969 14.9309375 3.14648438 15.796875 C3.11123464 17.86485938 3.0574302 19.93251271 3 22 C2.01 22 1.02 22 0 22 C0 14.74 0 7.48 0 0 Z " fill="#D80000" transform="translate(70,265)"/>
<path d="M0 0 C1.32 0 2.64 0 4 0 C4 2.97 4 5.94 4 9 C2.68 9 1.36 9 0 9 C0 6.03 0 3.06 0 0 Z " fill="#430000" transform="translate(439,217)"/>
<path d="M0 0 C0.33 0 0.66 0 1 0 C2.10228696 4.40914783 2.07654536 8.48382401 2 13 C1.01 12.67 0.02 12.34 -1 12 C-1.02687279 10.18757948 -1.04633715 8.37504767 -1.0625 6.5625 C-1.07410156 5.55316406 -1.08570313 4.54382813 -1.09765625 3.50390625 C-1 1 -1 1 0 0 Z " fill="#714342" transform="translate(137,215)"/>
</svg>
